<svg xmlns="http://www.w3.org/2000/svg" viewBox="0 0 312 312"><g id="レイヤー_2" data-name="レイヤー 2"><g id="Layer_1" data-name="Layer 1"><path d="M252.4,0H59.6C26,0,0,26,0,59.6V252.4C0,286,26,312,59.6,312H252.4c33.6,0,59.6-26,59.6-59.6V123.6h0v-64C312,26,286,0,252.4,0ZM223.2,35.2h46.4l6.4-.4V88.4H223.2Zm-112,88.4a54.86,54.86,0,0,1,89.6,0A56.83,56.83,0,0,1,211.2,156a55.2,55.2,0,0,1-110.4,0A56.83,56.83,0,0,1,111.2,123.6ZM284,252.4c0,16.8-14.8,31.6-31.6,31.6H59.6C42.8,284,28,269.2,28,252.4V124H76.4c-4,8-6.4,20.4-6.4,32a86,86,0,0,0,172,0c0-11.2-2.4-24-6.4-32H284Z"/></g></g></svg>